<svg xmlns="http://www.w3.org/2000/svg" viewBox="0 0 32 32" width="32" height="32"><rect width="32" height="32" rx="8" fill="#222"/><path d="M16 6c-5.5 0-10 4.5-10 10 0 4.4 2.9 8.1 6.9 9.4.5.1.7-.2.7-.5v-1.7c-2.8.6-3.4-1.3-3.4-1.3-.5-1.2-1.2-1.5-1.2-1.5-1-.7.1-.7.1-.7 1.1.1 1.7 1.1 1.7 1.1 1 .1.7-.7.7-.7-.8-.1-1.6-.4-1.6-1.7 0-.4.1-.7.3-1-.1-.3-.3-1.1.1-2.2 0 0 .8-.3 2.5 1 .7-.2 1.5-.3 2.3-.3s1.6.1 2.3.3c1.7-1.3 2.5-1 2.5-1 .4 1.1.2 1.9.1 2.2.2.3.3.6.3 1 0 1.3-.8 1.6-1.6 1.7.1.1.7.8.7 1.7v2.5c0 .3.2.6.7.5C23.1 24.1 26 20.4 26 16c0-5.5-4.5-10-10-10z" fill="#fff"/></svg>